<svg width="35" height="22" viewBox="0 0 35 22" fill="none" xmlns="http://www.w3.org/2000/svg">
<path d="M0 0H35V21.4516H0V0Z" fill="#5C9E31"/>
<path d="M30.497 10.7389L17.4245 18.9978L4.5033 10.8902L17.5758 2.63135L30.497 10.7389Z" fill="#FCEA2B"/>
<path d="M17.5 15.8066C20.3059 15.8066 22.5806 13.5319 22.5806 10.7259C22.5806 7.91995 20.3059 5.64526 17.5 5.64526C14.694 5.64526 12.4193 7.91995 12.4193 10.7259C12.4193 13.5319 14.694 15.8066 17.5 15.8066Z" fill="#1E50A0"/>
<path d="M22.1059 12.8607C22.2922 12.4545 22.4243 12.0255 22.4988 11.5849C22.079 10.7074 21.4668 9.9357 20.7079 9.32716C19.9489 8.71861 19.0626 8.28883 18.1148 8.06974C17.167 7.85064 16.182 7.84785 15.2329 8.06157C14.2839 8.27529 13.3952 8.70004 12.6328 9.30427C12.5236 9.67427 12.4569 10.0555 12.4341 10.4406C13.1832 9.82609 14.0659 9.39542 15.0113 9.1831C15.9567 8.97078 16.9387 8.9827 17.8787 9.2179C18.8187 9.45311 19.6906 9.90507 20.4247 10.5376C21.1587 11.1702 21.7345 11.9658 22.1059 12.8607Z" fill="white"/>
</svg>
