<svg width="35" height="22" viewBox="0 0 35 22" fill="none" xmlns="http://www.w3.org/2000/svg">
<rect width="35" height="21.45" fill="#C60A1D"/>
<path d="M0 5H35V16H0V5Z" fill="#FFC400"/>
<path d="M8.74988 9.77954V12.6148C8.74988 13.3667 9.05717 14.0879 9.60415 14.6196C10.1511 15.1513 10.893 15.45 11.6665 15.45C12.4401 15.45 13.182 15.1513 13.7289 14.6196C14.2759 14.0879 14.5832 13.3667 14.5832 12.6148V9.77954H8.74988Z" fill="#EA596E"/>
<path d="M11.6667 8.83472H14.5834V11.6699H11.6667V8.83472Z" fill="#F4A2B2"/>
<path d="M8.74988 8.83472H11.6665V11.6699H8.74988V8.83472Z" fill="#DD2E44"/>
<path d="M11.6665 8.83522C13.2774 8.83522 14.5832 8.20054 14.5832 7.41761C14.5832 6.63469 13.2774 6 11.6665 6C10.0557 6 8.74988 6.63469 8.74988 7.41761C8.74988 8.20054 10.0557 8.83522 11.6665 8.83522Z" fill="#EA596E"/>
<path d="M11.6665 7.41761C13.2774 7.41761 14.5832 7.10027 14.5832 6.70881C14.5832 6.31734 13.2774 6 11.6665 6C10.0557 6 8.74988 6.31734 8.74988 6.70881C8.74988 7.10027 10.0557 7.41761 11.6665 7.41761Z" fill="#FFAC33"/>
<path d="M6.80554 8.83472H7.77776V15.4502H6.80554V8.83472ZM15.5555 8.83472H16.5278V15.4502H15.5555V8.83472Z" fill="#99AAB5"/>
<path d="M5.83325 14.5049H8.74992V15.45H5.83325V14.5049ZM14.5833 14.5049H17.4999V15.45H14.5833V14.5049ZM6.80547 7.8894H7.7777V8.83448H6.80547V7.8894ZM15.5555 7.8894H16.5277V8.83448H15.5555V7.8894Z" fill="#66757F"/>
</svg>
