<svg width="35" height="21" viewBox="0 0 35 21" fill="none" xmlns="http://www.w3.org/2000/svg">
<path d="M0 0H34.2632V21H0V0Z" fill="white"/>
<path d="M0 0H34.2632V2.76316H0V0ZM0 4.97368H34.2632V7.18421H0V4.97368ZM0 9.39474H34.2632V11.6053H0V9.39474Z" fill="#D22F27"/>
<path d="M0 0H17.6842V11.6053H0V0Z" fill="#1E50A0"/>
<path d="M0 13.8157H34.2632V16.0262H0V13.8157Z" fill="#D22F27"/>
<path d="M2.48676 3.73011C3.02088 3.73011 3.45386 3.29712 3.45386 2.763C3.45386 2.22889 3.02088 1.7959 2.48676 1.7959C1.95264 1.7959 1.51965 2.22889 1.51965 2.763C1.51965 3.29712 1.95264 3.73011 2.48676 3.73011Z" fill="white"/>
<path d="M6.9079 3.73011C7.44202 3.73011 7.87501 3.29712 7.87501 2.763C7.87501 2.22889 7.44202 1.7959 6.9079 1.7959C6.37378 1.7959 5.9408 2.22889 5.9408 2.763C5.9408 3.29712 6.37378 3.73011 6.9079 3.73011Z" fill="white"/>
<path d="M11.329 3.73011C11.8632 3.73011 12.2961 3.29712 12.2961 2.763C12.2961 2.22889 11.8632 1.7959 11.329 1.7959C10.7949 1.7959 10.3619 2.22889 10.3619 2.763C10.3619 3.29712 10.7949 3.73011 11.329 3.73011Z" fill="white"/>
<path d="M15.7499 3.73011C16.2841 3.73011 16.717 3.29712 16.717 2.763C16.717 2.22889 16.2841 1.7959 15.7499 1.7959C15.2158 1.7959 14.7828 2.22889 14.7828 2.763C14.7828 3.29712 15.2158 3.73011 15.7499 3.73011Z" fill="white"/>
<path d="M13.5396 5.9408C14.0737 5.9408 14.5067 5.50781 14.5067 4.9737C14.5067 4.43958 14.0737 4.00659 13.5396 4.00659C13.0055 4.00659 12.5725 4.43958 12.5725 4.9737C12.5725 5.50781 13.0055 5.9408 13.5396 5.9408Z" fill="white"/>
<path d="M9.11847 5.9408C9.65259 5.9408 10.0856 5.50781 10.0856 4.9737C10.0856 4.43958 9.65259 4.00659 9.11847 4.00659C8.58435 4.00659 8.15137 4.43958 8.15137 4.9737C8.15137 5.50781 8.58435 5.9408 9.11847 5.9408Z" fill="white"/>
<path d="M4.69733 5.9408C5.23145 5.9408 5.66444 5.50781 5.66444 4.9737C5.66444 4.43958 5.23145 4.00659 4.69733 4.00659C4.16321 4.00659 3.73022 4.43958 3.73022 4.9737C3.73022 5.50781 4.16321 5.9408 4.69733 5.9408Z" fill="white"/>
<path d="M2.48676 8.15125C3.02088 8.15125 3.45386 7.71826 3.45386 7.18415C3.45386 6.65003 3.02088 6.21704 2.48676 6.21704C1.95264 6.21704 1.51965 6.65003 1.51965 7.18415C1.51965 7.71826 1.95264 8.15125 2.48676 8.15125Z" fill="white"/>
<path d="M6.9079 8.15125C7.44202 8.15125 7.87501 7.71826 7.87501 7.18415C7.87501 6.65003 7.44202 6.21704 6.9079 6.21704C6.37378 6.21704 5.9408 6.65003 5.9408 7.18415C5.9408 7.71826 6.37378 8.15125 6.9079 8.15125Z" fill="white"/>
<path d="M11.329 8.15125C11.8632 8.15125 12.2961 7.71826 12.2961 7.18415C12.2961 6.65003 11.8632 6.21704 11.329 6.21704C10.7949 6.21704 10.3619 6.65003 10.3619 7.18415C10.3619 7.71826 10.7949 8.15125 11.329 8.15125Z" fill="white"/>
<path d="M15.7499 8.15125C16.2841 8.15125 16.717 7.71826 16.717 7.18415C16.717 6.65003 16.2841 6.21704 15.7499 6.21704C15.2158 6.21704 14.7828 6.65003 14.7828 7.18415C14.7828 7.71826 15.2158 8.15125 15.7499 8.15125Z" fill="white"/>
<path d="M13.5396 10.3617C14.0737 10.3617 14.5067 9.92871 14.5067 9.3946C14.5067 8.86048 14.0737 8.42749 13.5396 8.42749C13.0055 8.42749 12.5725 8.86048 12.5725 9.3946C12.5725 9.92871 13.0055 10.3617 13.5396 10.3617Z" fill="white"/>
<path d="M9.11847 10.3617C9.65259 10.3617 10.0856 9.92871 10.0856 9.3946C10.0856 8.86048 9.65259 8.42749 9.11847 8.42749C8.58435 8.42749 8.15137 8.86048 8.15137 9.3946C8.15137 9.92871 8.58435 10.3617 9.11847 10.3617Z" fill="white"/>
<path d="M4.69733 10.3617C5.23145 10.3617 5.66444 9.92871 5.66444 9.3946C5.66444 8.86048 5.23145 8.42749 4.69733 8.42749C4.16321 8.42749 3.73022 8.86048 3.73022 9.3946C3.73022 9.92871 4.16321 10.3617 4.69733 10.3617Z" fill="white"/>
<path d="M0 18.2368H34.2632V21H0V18.2368Z" fill="#D22F27"/>
</svg>
